<?xml version="1.0" encoding="utf-8"?>
<!-- Generator: Adobe Illustrator 19.2.1, SVG Export Plug-In . SVG Version: 6.00 Build 0)  -->
<svg version="1.1" id="Layer_1" xmlns="http://www.w3.org/2000/svg" xmlns:xlink="http://www.w3.org/1999/xlink" x="0px" y="0px"
	 viewBox="0 0 456.7 43.8" style="enable-background:new 0 0 456.7 43.8;" xml:space="preserve">
<style type="text/css">
	.st0{fill:#F4CD13;}
	.st1{font-family:'Lato-Regular';}
	.st2{font-size:55.6px;}
	.st3{letter-spacing:4;}
	.st4{letter-spacing:5;}
</style>
<title>DEMOR-system-logo-black</title>
<path class="st0" d="M181.9,0.6h25.6c4.3,0,7.4,1,9.3,2.9s2.9,5,2.9,9.3v5.5c0,3.4-0.6,6-1.7,7.9c-1.2,1.9-3.1,3.3-5.3,3.7l7.6,13.4
	h-11.9l-7-12.8h-8.5v12.8h-11L181.9,0.6L181.9,0.6z M208.7,12.8c0-2.4-1.2-3.7-3.6-3.6h-12.2v12.8H205c2.4,0,3.6-1.2,3.6-3.6V12.8z"
	/>
<path class="st0" d="M175.4,31.7c0,4.3-1,7.4-2.9,9.3s-5,2.9-9.3,2.9H148c-4.3,0-7.4-1-9.3-2.9s-2.9-5-2.9-9.3V12.2
	c0-4.3,1-7.4,2.9-9.3s5-2.9,9.3-2.9h15.2c4.3,0,7.4,1,9.3,2.9s2.9,5,2.9,9.3V31.7z M164.4,12.2c0-2.4-1.2-3.7-3.6-3.6h-10.3
	c-2.4,0-3.6,1.2-3.6,3.6v19.5c0,2.4,1.2,3.7,3.6,3.7h10.4c2.4,0,3.6-1.2,3.6-3.7L164.4,12.2L164.4,12.2z"/>
<path class="st0" d="M118.4,19.5l-8.5,15.2h-8.5l-8.5-15.2v23.7h-11V0.6h11.6l12.2,22.5l12.2-22.5h11.6v42.6h-11V19.5z"/>
<g id="E">
	<path class="st0" d="M51.3,17.4h25.3l0,0l0,0c0,4.7-3.8,8.5-8.5,8.5H42.8l0,0l0,0C42.8,21.2,46.6,17.4,51.3,17.4z"/>
	<path class="st0" d="M51.3,0.6h25.3l0,0l0,0c0,4.7-3.8,8.5-8.5,8.6c0,0,0,0-0.1,0H42.8l0,0l0,0C42.8,4.5,46.6,0.6,51.3,0.6
		C51.3,0.6,51.3,0.6,51.3,0.6z"/>
	<path class="st0" d="M51.3,34.7h25.3l0,0l0,0c0,4.7-3.8,8.5-8.5,8.5H42.8l0,0l0,0C42.8,38.5,46.6,34.7,51.3,34.7z"/>
</g>
<path class="st0" d="M24.1,0.6c4.6,0,8.1,1.2,10.4,3.6c2.4,2.4,3.6,5.9,3.6,10.4v14.6c0,4.6-1.2,8.1-3.6,10.4
	c-2.4,2.4-5.9,3.6-10.4,3.6H0.4V0.6H24.1z M27.1,14.6c0-3.7-1.8-5.5-5.5-5.5H11.3v25.6h10.3c3.7,0,5.5-1.8,5.5-5.5L27.1,14.6
	L27.1,14.6z"/>
<text transform="matrix(1 0 0 1 222.7833 41.66)" class="st0 st1 st2 st3">S</text>
<text transform="matrix(1 0 0 1 258.2533 41.66)" class="st0 st1 st2 st3">Y</text>
<text transform="matrix(1 0 0 1 296.7633 41.66)" class="st0 st1 st2 st4">STEM</text>
</svg>
